<mxfile host="65bd71144e">
    <diagram id="Y5TyZA84Gzd5r6tW0MJS" name="Page-1">
        <mxGraphModel dx="320" dy="475" grid="1" gridSize="10" guides="1" tooltips="1" connect="1" arrows="1" fold="1" page="1" pageScale="1" pageWidth="827" pageHeight="1169" background="#333333" math="0" shadow="0">
            <root>
                <mxCell id="0"/>
                <mxCell id="1" parent="0"/>
            </root>
        </mxGraphModel>
    </diagram>
</mxfile>